<svg width="24" height="24" viewBox="0 0 24 24" fill="none" xmlns="http://www.w3.org/2000/svg">
<path d="M22.4708 0.0532227H1.53028C0.71513 0.0532227 0.0532227 0.714066 0.0532227 1.53028V22.4698C0.0532227 23.286 0.71513 23.9468 1.53028 23.9468H22.4708C23.286 23.9468 23.9479 23.286 23.9479 22.4698V1.53028C23.9479 0.714066 23.286 0.0532227 22.4708 0.0532227ZM21.0374 13.1307L13.1317 21.0363C12.5071 21.661 11.494 21.661 10.8693 21.0363L2.9637 13.1307C2.33904 12.506 2.33904 11.494 2.9637 10.8693L10.8693 2.9637C11.494 2.33904 12.5071 2.33904 13.1317 2.9637L21.0374 10.8693C21.6621 11.494 21.6621 12.506 21.0374 13.1307Z" fill="white" stroke="white" stroke-width="0.106416" stroke-miterlimit="10"/>
</svg>
